HIERARCHY
ROOT ui
{
	 OFFSET 0 0 0
	 CHANNELS 3 XPosition YPosition Z Position
	 EndSite
	 {
	 OFFSET 0 -1 0
	 }
}
ROOT li
{
	 OFFSET 0 0 0
	 CHANNELS 3 XPosition YPosition Z Position
	 EndSite
	 {
	 OFFSET 0 -1 0
	 }
}
ROOT ul
{
	 OFFSET 0 0 0
	 CHANNELS 3 XPosition YPosition Z Position
	 EndSite
	 {
	 OFFSET 0 -1 0
	 }
}
ROOT ll
{
	 OFFSET 0 0 0
	 CHANNELS 3 XPosition YPosition Z Position
	 EndSite
	 {
	 OFFSET 0 -1 0
	 }
}
ROOT tt
{
	 OFFSET 0 0 0
	 CHANNELS 3 XPosition YPosition Z Position
	 EndSite
	 {
	 OFFSET 0 -1 0
	 }
}
ROOT tb
{
	 OFFSET 0 0 0
	 CHANNELS 3 XPosition YPosition Z Position
	 EndSite
	 {
	 OFFSET 0 -1 0
	 }
}
ROOT td
{
	 OFFSET 0 0 0
	 CHANNELS 3 XPosition YPosition Z Position
	 EndSite
	 {
	 OFFSET 0 -1 0
	 }
}
ROOT v
{
	 OFFSET 0 0 0
	 CHANNELS 3 XPosition YPosition Z Position
	 EndSite
	 {
	 OFFSET 0 -1 0
	 }
}
ROOT bn
{
	 OFFSET 0 0 0
	 CHANNELS 3 XPosition YPosition Z Position
	 EndSite
	 {
	 OFFSET 0 -1 0
	 }
}
MOTION
Frames: 29
Frame Time: 0.002
0.026562868118286134	0.0040711359977722164	0		0.4527275085449219	-2.4336630859375	0		-1.0564324951171875	-0.10766963958740235	0		-0.65615576171875	-2.53218212890625	0		1.8940411376953126	-1.3509517822265624	0		3.4888701171875	-0.32555548095703124	0		4.81893505859375	0.02708082389831543	0		5.89686376953125	0.36487319946289065	0		-0.21256015014648438	5.83632958984375	0		
0.019289230346679686	-0.0026577889919281008	0		0.49557028198242187	-2.432810302734375	0		-1.0616697998046876	-0.11043798065185546	0		-0.6282506713867188	-2.52422412109375	0		1.8857696533203125	-1.3606337890625	0		3.46865478515625	-0.32610272216796876	0		4.8297197265625	0.027296302795410156	0		5.90071044921875	0.37317022705078123	0		-0.22698722839355467	5.82565576171875	0		
-0.03385955047607422	-0.0020035169124603272	0		0.4504515380859375	-2.435213134765625	0		-1.0698858642578124	-0.1181912078857422	0		-0.5893533325195313	-2.52536767578125	0		1.9336229248046874	-1.3637960205078126	0		3.491561767578125	-0.32001614379882815	0		4.83361962890625	0.03357583999633789	0		5.89648291015625	0.36554296875	0		-0.2472285919189453	5.8310234375	0		
0.028969196319580077	-0.011344881057739257	0		0.47941897583007814	-2.435254150390625	0		-1.108965576171875	-0.1166935043334961	0		-0.6483634643554688	-2.522688232421875	0		1.880532470703125	-1.3671038818359376	0		3.476409912109375	-0.327607177734375	0		4.83758544921875	0.040856761932373045	0		5.88751708984375	0.3819605712890625	0		-0.24647624206542967	5.83020263671875	0		
-0.01700945281982422	-0.0037709689140319825	0		0.45852142333984375	-2.425879638671875	0		-1.100943359375	-0.10960686492919922	0		-0.6461580200195313	-2.5015390625	0		1.948459228515625	-1.3754439697265626	0		3.516572021484375	-0.304668701171875	0		4.85665380859375	0.05400976181030273	0		5.90546630859375	0.38215066528320313	0		-0.23058853149414063	5.84024462890625	0		
0.026072586059570312	0.005041778087615967	0		0.4835541381835938	-2.4309013671875	0		-1.070001220703125	-0.11772281646728516	0		-0.6420381469726563	-2.4964150390625	0		1.9344891357421874	-1.3770950927734376	0		3.469564453125	-0.30699752807617187	0		4.84273583984375	0.06343998336791992	0		5.8873291015625	0.36664495849609374	0		-0.24782034301757813	5.8315576171875	0		
-0.033935516357421876	-0.0012835190296173096	0		0.4727238464355469	-2.42462548828125	0		-0.9969852905273437	-0.12219718933105468	0		-0.6378838500976562	-2.492297607421875	0		1.92951904296875	-1.3838272705078125	0		3.493671630859375	-0.3009295654296875	0		4.85378271484375	0.06365697860717773	0		5.8873671875	0.36698452758789063	0		-0.26303179931640625	5.8208466796875	0		
0.019146272659301758	-0.0015630179643630982	0		0.4708613586425781	-2.4264296875	0		-1.07792041015625	-0.12438278961181641	0		-0.6395853271484375	-2.475134765625	0		1.9296429443359375	-1.38360595703125	0		3.48774755859375	-0.30261236572265626	0		4.84692333984375	0.07102185821533204	0		5.8874404296875	0.3673211364746094	0		-0.26311767578125	5.82100390625	0		
-0.03373847198486328	-9.576100111007691E-4	0		0.457037109375	-2.427136474609375	0		-1.0828282470703126	-0.1272094955444336	0		-0.6193926391601563	-2.47415771484375	0		1.933704345703125	-1.39442041015625	0		3.50104443359375	-0.28145791625976563	0		4.8710751953125	0.07612442779541016	0		5.90160107421875	0.3745371704101563	0		-0.2470899200439453	5.831025390625	0		
0.023424198150634765	0.0017296570539474488	0		0.45926235961914064	-2.42497802734375	0		-1.0776602783203124	-0.12411969757080078	0		-0.68404736328125	-2.45747314453125	0		1.929975341796875	-1.3831702880859376	0		3.50515869140625	-0.28522921752929686	0		4.866279296875	0.08446648406982422	0		5.8968046875	0.38390850830078127	0		-0.2471160430908203	5.8311806640625	0		
0.023587339401245116	0.0018943140506744384	0		0.47955807495117186	-2.41696728515625	0		-1.0214789428710938	-0.12244956970214843	0		-0.6127359008789063	-2.447916748046875	0		1.9730675048828126	-1.396308837890625	0		3.523445068359375	-0.27111813354492187	0		4.87743994140625	0.08467362976074219	0		5.90089111328125	0.376202392578125	0		-0.24711378479003906	5.831337890625	0		
0.019744394302368164	-9.041680097579956E-4	0		0.47576251220703125	-2.421753662109375	0		-1.1023160400390626	-0.12463960266113282	0		-0.6824044799804687	-2.437187255859375	0		1.9542950439453124	-1.39493212890625	0		3.508568359375	-0.27873309326171875	0		4.87674365234375	0.09997799682617188	0		5.8969970703125	0.3685593566894531	0		-0.26316815185546877	5.82163134765625	0		
0.019935056686401366	-7.304009795188903E-4	0		0.4760134582519531	-2.421568603515625	0		-1.0382149658203126	-0.13602049255371093	0		-0.6031640625	-2.438681396484375	0		1.973511474609375	-1.3958665771484375	0		3.50389794921875	-0.2624317932128906	0		4.8809892578125	0.10723956298828125	0		5.8791787109375	0.3690277404785156	0		-0.26312252807617187	5.82179833984375	0		
-0.03287771224975586	-1.1410800367593765E-4	0		0.4502968139648437	-2.41616357421875	0		-1.1150238037109375	-0.1352315673828125	0		-0.6738377075195312	-2.42793212890625	0		1.969647216796875	-1.405607177734375	0		3.512998779296875	-0.27324374389648437	0		4.883212890625	0.11251640319824219	0		5.89328125	0.3602295837402344	0		-0.26108819580078124	5.81995654296875	0		
0.03726766967773437	-0.0024983530044555666	0		0.49348599243164065	-2.41931640625	0		-1.0378594970703126	-0.13569609069824218	0		-0.6744830322265625	-2.4107490234375	0		1.979947265625	-1.3924581298828125	0		3.533421875	-0.24214459228515625	0		4.88249755859375	0.12781707763671876	0		5.89356884765625	0.37654339599609377	0		-0.24496572875976563	5.83000927734375	0		
-0.02855471992492676	0.0042425827980041506	0		0.45472494506835937	-2.41078759765625	0		-1.0477220458984375	-0.1344330596923828	0		-0.7061137084960938	-2.386300048828125	0		2.0000911865234374	-1.3933829345703126	0		3.511471923828125	-0.2516962890625	0		4.8996865234375	0.1359716796875	0		5.88469677734375	0.37792990112304686	0		-0.2630149230957031	5.82235302734375	0		
0.02450701904296875	0.00302423095703125	0		0.4807953186035156	-2.415777587890625	0		-1.0597374267578126	-0.1451379852294922	0		-0.7060020751953126	-2.386097412109375	0		1.9751380615234375	-1.3989310302734375	0		3.51558837890625	-0.2464560546875	0		4.88875634765625	0.13635762023925782	0		5.88462353515625	0.3612431640625	0		-0.26204867553710937	5.8215546875	0		
-0.059514087677001955	9.37745988368988E-4	0		0.45285586547851564	-2.4123134765625	0		-1.063759033203125	-0.1478913116455078	0		-0.702951171875	-2.38390283203125	0		1.9990601806640624	-1.4108685302734374	0		3.518641357421875	-0.2402011260986328	0		4.9038115234375	0.14353448486328124	0		5.88461865234375	0.361556640625	0		-0.2621315002441406	5.8217802734375	0		
0.020398447036743164	5.317170023918152E-4	0		0.4807744140625	-2.415290771484375	0		-1.063842041015625	-0.147658935546875	0		-0.6989671020507813	-2.378698974609375	0		1.9889761962890624	-1.4125184326171876	0		3.526713623046875	-0.22097991943359374	0		4.90083056640625	0.15686178588867186	0		5.8805947265625	0.3699039001464844	0		-0.2471966094970703	5.83289990234375	0		
-0.05574691772460937	0.005410294055938721	0		0.45667449951171873	-2.407830078125	0		-1.0580618896484375	-0.1524561309814453	0		-0.6920765380859375	-2.372501220703125	0		2.050823486328125	-1.41074169921875	0		3.522421630859375	-0.2346523132324219	0		4.9116484375	0.15708010864257813	0		5.893345703125	0.362115478515625	0		-0.26152896118164065	5.82127294921875	0		
0.023960832595825196	0.004038623809814453	0		0.511367431640625	-2.412995361328125	0		-1.064301513671875	-0.1471372528076172	0		-0.7032761840820313	-2.36413916015625	0		2.007520751953125	-1.4141007080078125	0		3.54923828125	-0.22256947326660156	0		4.91947900390625	0.17132669067382814	0		5.88912646484375	0.37046649169921875	0		-0.2618510131835938	5.821548828125	0		
-0.03344590377807617	0.0017942039966583252	0		0.47306826782226563	-2.403391845703125	0		-1.0777738037109375	-0.15774310302734376	0		-0.6436598510742187	-2.365335693359375	0		2.0400687255859373	-1.4230657958984374	0		3.557838623046875	-0.22433319091796874	0		4.92804541015625	0.1655692901611328	0		5.88367626953125	0.3628270263671875	0		-0.2632533874511719	5.82284912109375	0		
0.015034095764160156	-0.002295973062515259	0		0.4995621337890625	-2.406302734375	0		-1.082291748046875	-0.16140582275390625	0		-0.7310569458007813	-2.3543251953125	0		2.0395858154296875	-1.4227545166015625	0		3.52745947265625	-0.2107760009765625	0		4.9187294921875	0.1869588623046875	0		5.88418115234375	0.36213824462890626	0		-0.26275967407226564	5.8221474609375	0		
-0.051580326080322265	-0.005441994190216065	0		0.45497076416015625	-2.40662744140625	0		-1.149873779296875	-0.1605436248779297	0		-0.6467498168945313	-2.36769482421875	0		2.03697705078125	-1.4254197998046876	0		3.5507529296875	-0.22565205383300782	0		4.92713671875	0.18620361328125	0		5.8795322265625	0.35448843383789064	0		-0.2462701110839844	5.831328125	0		
0.03075732421875	-0.0037858469486236573	0		0.4863122863769531	-2.403558837890625	0		-1.13846923828125	-0.1503092803955078	0		-0.7173480834960938	-2.356796630859375	0		2.05422412109375	-1.4342413330078125	0		3.57931884765625	-0.19556779479980468	0		4.93457470703125	0.200455322265625	0		5.8779873046875	0.37081069946289064	0		-0.2620202941894531	5.82077978515625	0		
-0.03191744613647461	0.0070554490089416505	0		0.47660845947265623	-2.395149658203125	0		-1.0743193359375	-0.16149234008789062	0		-0.6680698852539062	-2.350860595703125	0		2.073507568359375	-1.4280745849609375	0		3.5465205078125	-0.19998582458496095	0		4.95088232421875	0.20863302612304688	0		5.87810107421875	0.35511465454101565	0		-0.2637431945800781	5.8221279296875	0		
0.026146297454833985	-0.00607509183883667	0		0.4737392578125	-2.39778857421875	0		-1.0791815185546876	-0.1651045684814453	0		-0.7109293212890625	-2.3521669921875	0		2.067612548828125	-1.4346998291015625	0		3.55968994140625	-0.19977545166015626	0		4.9500546875	0.20894764709472657	0		5.8722099609375	0.34746389770507813	0		-0.2635409545898437	5.82146923828125	0		
-0.03766608810424805	0.003793263912200928	0		0.4728306884765625	-2.39743603515625	0		-1.0840948486328126	-0.1677057647705078	0		-0.6768793334960937	-2.35708837890625	0		2.06671240234375	-1.4343612060546875	0		3.581783447265625	-0.2016367950439453	0		4.9532177734375	0.21522830200195311	0		5.87639013671875	0.355728271484375	0		-0.26437753295898436	5.82182861328125	0		
0.010366744995117187	-2.399280071258545E-4	0		0.44591357421875	-2.391864501953125	0		-1.15899462890625	-0.16272682189941406	0		-0.7527943725585937	-2.351105712890625	0		2.071706787109375	-1.4410667724609374	0		3.575003173828125	-0.1822617645263672	0		4.960400390625	0.22947486877441406	0		5.8793876953125	0.346998291015625	0		-0.2642564697265625	5.8211884765625	0		
